<?xml version="1.0" encoding="utf-8"?>
<!-- Generator: Adobe Illustrator 25.1.0, SVG Export Plug-In . SVG Version: 6.00 Build 0)  -->
<svg version="1.1" id="Capa_1" xmlns="http://www.w3.org/2000/svg" xmlns:xlink="http://www.w3.org/1999/xlink" x="0px" y="0px"
	 viewBox="0 0 595.28 841.89" style="enable-background:new 0 0 595.28 841.89;" xml:space="preserve">
<g>
	<g>
		<path d="M62.74,68.63c21.07,40.23,47.56,77.2,73.73,114.21c26.76,37.85,52.08,76.52,75.89,116.29
			c23.92,39.94,46.75,80.53,70.13,120.79c23.6,40.64,48,80.79,73.57,120.23c25.62,39.52,52.28,78.36,79.95,116.46
			c3.39,4.67,6.79,9.32,10.21,13.97c1.89,2.56,6.23,0.07,4.32-2.52c-27.91-37.93-54.83-76.59-80.71-115.94
			c-25.84-39.3-50.59-79.3-74.37-119.88c-23.54-40.17-46.33-80.78-70.01-120.87c-23.64-40.03-48.36-79.34-75.06-117.41
			c-26.03-37.12-53.08-73.67-75.39-113.22c-2.73-4.83-5.38-9.71-7.95-14.63C65.57,63.25,61.25,65.77,62.74,68.63L62.74,68.63z"/>
	</g>
</g>
<g>
	<g>
		<path d="M523.91,66.14c-29.59,37.83-58.52,76.16-86.75,115.01c-28.33,38.98-55.97,78.47-82.9,118.44S301.11,380,275.62,420.9
			c-25.39,40.74-50.05,81.92-73.98,123.54c-24.02,41.78-47.3,83.98-69.82,126.59c-2.77,5.24-5.53,10.49-8.28,15.74
			c-1.49,2.85,2.82,5.38,4.32,2.52c22.25-42.53,45.24-84.68,68.98-126.4c23.74-41.72,48.22-83.02,73.42-123.87
			s51.13-81.26,77.77-121.19c26.64-39.93,53.98-79.39,82.01-118.36c28.13-39.1,56.96-77.7,86.47-115.77
			c3.63-4.69,7.28-9.36,10.93-14.03C529.41,67.17,525.89,63.61,523.91,66.14L523.91,66.14z"/>
	</g>
</g>
</svg>
